<svg xmlns="http://www.w3.org/2000/svg" width="24" height="24" viewBox="0 0 24 24" fill="none" stroke="currentColor" stroke-width="1.5" stroke-linecap="round" stroke-linejoin="round"><circle cx="12" cy="12" r="3"></circle><path d="M19.4 15a1.65 1.65 0 0 0 .33 1.82l.06.06a2 2 0 1 1-2.83 2.83l-.06-.06a1.65 1.65 0 0 0-1.82-.33 1.65 1.65 0 0 0-1 1.51V21a2 2 0 1 1-4 0v-.09a1.65 1.65 0 0 0-1-1.51 1.65 1.65 0 0 0-1.82.33l-.06.06A2 2 0 1 1 2.3 18.88l.06-.06a1.65 1.65 0 0 0 .33-1.82 1.65 1.65 0 0 0-1.51-1H3a2 2 0 1 1 0-4h.09c.69 0 1.27-.4 1.51-1a1.65 1.65 0 0 0-.33-1.82l-.06-.06A2 2 0 1 1 6.12 2.3l.06.06c.44.44 1 .7 1.66.7.55 0 1.06-.18 1.46-.48.39-.3.8-.3 1.2 0 .4.3.91.48 1.46.48.66 0 1.22-.26 1.66-.7l.06-.06A2 2 0 0 1 19.4 2.3l-.06.06c-.44.44-.7 1-.7 1.66 0 .55.18 1.06.48 1.46.3.39.3.8 0 1.2-.3.4-.48.91-.48 1.46 0 .66.26 1.22.7 1.66l.06.06z"></path></svg>